<svg width="24" height="24" viewBox="0 0 24 24" fill="none" xmlns="http://www.w3.org/2000/svg">
<rect x="2" y="2" width="20" height="20" rx="10" fill="#F4E228"/>
<path d="M12.0001 6.56201C8.45173 6.56201 5.57617 8.83297 5.57617 11.6366C5.57617 13.4376 6.76879 15.0173 8.5568 15.9205L7.9522 18.1785C7.93008 18.2467 7.94851 18.3223 7.99828 18.3721C8.0333 18.4071 8.07938 18.4255 8.12915 18.4255C8.16786 18.4255 8.20657 18.409 8.2416 18.3831L10.8443 16.6265C11.2222 16.6818 11.6075 16.7113 12.0001 16.7113C15.5466 16.7113 18.424 14.4403 18.424 11.6385C18.424 8.83665 15.5466 6.56385 12.0001 6.56385" fill="#392020"/>
</svg>
