<svg width="24" height="24" viewBox="0 0 24 24" fill="none" xmlns="http://www.w3.org/2000/svg">
<rect width="24" height="24" rx="12" fill="white"/>
<path d="M12.1236 11.1406H17.9043C17.9681 11.4896 18 11.8229 18 12.1406C18 13.2708 17.7581 14.2799 17.2744 15.168C16.7907 16.056 16.101 16.75 15.2053 17.25C14.3096 17.75 13.2824 18 12.1236 18C11.289 18 10.4944 17.8424 9.73954 17.5273C8.98472 17.2122 8.33355 16.7865 7.78605 16.25C7.23854 15.7135 6.80399 15.0755 6.48239 14.3359C6.1608 13.5964 6 12.8177 6 12C6 11.1823 6.1608 10.4036 6.48239 9.66406C6.80399 8.92448 7.23854 8.28646 7.78605 7.75C8.33355 7.21354 8.98472 6.78776 9.73954 6.47266C10.4944 6.15755 11.289 6 12.1236 6C13.7183 6 15.087 6.52344 16.2299 7.57031L14.5635 9.14062C13.9096 8.52083 13.0963 8.21094 12.1236 8.21094C11.4379 8.21094 10.804 8.38021 10.2219 8.71875C9.63987 9.05729 9.17874 9.51693 8.83854 10.0977C8.49834 10.6784 8.32824 11.3125 8.32824 12C8.32824 12.6875 8.49834 13.3216 8.83854 13.9023C9.17874 14.4831 9.63987 14.9427 10.2219 15.2812C10.804 15.6198 11.4379 15.7891 12.1236 15.7891C12.586 15.7891 13.0113 15.7266 13.3993 15.6016C13.7874 15.4766 14.1063 15.3203 14.3561 15.1328C14.606 14.9453 14.8239 14.7318 15.01 14.4922C15.196 14.2526 15.3329 14.026 15.4206 13.8125C15.5083 13.599 15.5681 13.3958 15.6 13.2031H12.1236V11.1406Z" fill="black"/>
</svg>
