<svg width="24" height="24" viewBox="0 0 24 24" fill="none" xmlns="http://www.w3.org/2000/svg">
<rect width="24" height="24" rx="12" fill="#489FE8"/>
<path d="M18 8.19807C17.549 8.39836 17.0721 8.53076 16.584 8.59116C17.0989 8.27627 17.4848 7.78089 17.67 7.19691C17.1861 7.49177 16.6565 7.69952 16.104 7.81112C15.7347 7.40118 15.243 7.12831 14.7059 7.03529C14.1688 6.94227 13.6167 7.03437 13.1363 7.29715C12.6558 7.55992 12.2742 7.97851 12.0511 8.48726C11.8281 8.99601 11.7764 9.56614 11.904 10.1082C10.9257 10.0576 9.96866 9.79681 9.09519 9.34286C8.22172 8.88891 7.45131 8.25193 6.834 7.47331C6.61748 7.86036 6.50371 8.29869 6.504 8.74471C6.50323 9.15892 6.60253 9.56689 6.79305 9.93231C6.98358 10.2977 7.25941 10.6093 7.596 10.8391C7.20479 10.8282 6.82193 10.7208 6.48 10.5259V10.5566C6.48293 11.137 6.6816 11.6985 7.04239 12.1462C7.40318 12.5938 7.90395 12.9002 8.46 13.0134C8.24595 13.0801 8.02373 13.1153 7.8 13.1178C7.64513 13.116 7.49065 13.1016 7.338 13.0749C7.49635 13.5741 7.80277 14.0104 8.21464 14.323C8.62652 14.6357 9.12335 14.8091 9.636 14.8192C8.77032 15.5165 7.70153 15.897 6.6 15.9002C6.39944 15.9009 6.19904 15.8886 6 15.8633C7.12466 16.6067 8.43529 17.0013 9.774 16.9996C10.6978 17.0094 11.6143 16.8307 12.4699 16.4739C13.3255 16.1171 14.103 15.5893 14.7571 14.9215C15.4112 14.2536 15.9288 13.459 16.2795 12.584C16.6303 11.7091 16.8072 10.7714 16.8 9.82571C16.8 9.72129 16.8 9.61074 16.8 9.50018C17.2708 9.14075 17.6769 8.70013 18 8.19807Z" fill="white"/>
</svg>
